<svg width="24" height="25" viewBox="0 0 24 25" fill="none" xmlns="http://www.w3.org/2000/svg">
<path d="M17 2.45459H7C4.23858 2.45459 2 4.69317 2 7.45459V17.4546C2 20.216 4.23858 22.4546 7 22.4546H17C19.7614 22.4546 22 20.216 22 17.4546V7.45459C22 4.69317 19.7614 2.45459 17 2.45459Z" stroke="white" stroke-width="2" stroke-linecap="round" stroke-linejoin="round"/>
<path d="M16.0002 11.8244C16.1236 12.6566 15.9815 13.5066 15.594 14.2534C15.2065 15.0002 14.5933 15.6058 13.8418 15.9841C13.0903 16.3623 12.2386 16.494 11.408 16.3603C10.5773 16.2267 9.80996 15.8345 9.21503 15.2396C8.62011 14.6446 8.22793 13.8773 8.09426 13.0466C7.9606 12.216 8.09226 11.3643 8.47052 10.6128C8.84878 9.86126 9.45438 9.24814 10.2012 8.86064C10.948 8.47315 11.7979 8.33099 12.6302 8.4544C13.4791 8.58029 14.265 8.97587 14.8719 9.58271C15.4787 10.1896 15.8743 10.9755 16.0002 11.8244Z" stroke="white" stroke-width="2" stroke-linecap="round" stroke-linejoin="round"/>
<path d="M17.5 6.95459H17.51" stroke="white" stroke-width="2" stroke-linecap="round" stroke-linejoin="round"/>
</svg>
