<svg width="24" height="25" viewBox="0 0 24 25" fill="none" xmlns="http://www.w3.org/2000/svg">
<path d="M16 8.45459C17.5913 8.45459 19.1174 9.08673 20.2426 10.2119C21.3679 11.3372 22 12.8633 22 14.4546V21.4546H18V14.4546C18 13.9242 17.7893 13.4154 17.4142 13.0404C17.0391 12.6653 16.5304 12.4546 16 12.4546C15.4696 12.4546 14.9609 12.6653 14.5858 13.0404C14.2107 13.4154 14 13.9242 14 14.4546V21.4546H10V14.4546C10 12.8633 10.6321 11.3372 11.7574 10.2119C12.8826 9.08673 14.4087 8.45459 16 8.45459V8.45459Z" stroke="white" stroke-width="2" stroke-linecap="round" stroke-linejoin="round"/>
<path d="M6 9.45459H2V21.4546H6V9.45459Z" stroke="white" stroke-width="2" stroke-linecap="round" stroke-linejoin="round"/>
<path d="M4 6.45459C5.10457 6.45459 6 5.55916 6 4.45459C6 3.35002 5.10457 2.45459 4 2.45459C2.89543 2.45459 2 3.35002 2 4.45459C2 5.55916 2.89543 6.45459 4 6.45459Z" stroke="white" stroke-width="2" stroke-linecap="round" stroke-linejoin="round"/>
</svg>
