<svg width="60" height="22" viewBox="0 0 60 22" fill="none" xmlns="http://www.w3.org/2000/svg">
<path d="M0 17.4545V0H6.54545C7.88636 0 9.01136 0.25 9.92045 0.75C10.8352 1.25 11.5256 1.9375 11.9915 2.8125C12.4631 3.68182 12.6989 4.67045 12.6989 5.77841C12.6989 6.89773 12.4631 7.89205 11.9915 8.76136C11.5199 9.63068 10.8239 10.3153 9.90341 10.8153C8.98295 11.3097 7.84943 11.5568 6.50284 11.5568H2.16477V8.95739H6.0767C6.8608 8.95739 7.50284 8.82102 8.00284 8.5483C8.50284 8.27557 8.87216 7.90057 9.1108 7.4233C9.35511 6.94602 9.47727 6.39773 9.47727 5.77841C9.47727 5.15909 9.35511 4.61364 9.1108 4.14205C8.87216 3.67045 8.5 3.30398 7.99432 3.04261C7.49432 2.77557 6.84943 2.64205 6.05966 2.64205H3.16193V17.4545H0Z" fill="white"/>
<path d="M15.7415 17.4545L9.1108 21.4545L18.5114 0H22.4148L28.5682 17.4545H25.1932L20.5312 3.57955H20.3949L15.7415 17.4545ZM15.8523 10.6108H25.0568V13.1506H15.8523V10.6108Z" fill="white"/>
<path d="M27.9908 2.65057V0H41.9169V2.65057H36.522V17.4545H33.3857V2.65057H27.9908Z" fill="white"/>
<path d="M41.2783 21.4545L44.6016 0H47.7635V7.3892H55.8516V0H59.022V17.4545H55.8516V10.0398H47.7635V17.4545L41.2783 21.4545Z" fill="white"/>
</svg>
