<svg width="56" height="56" viewBox="0 0 56 56" fill="none" xmlns="http://www.w3.org/2000/svg">
<rect width="56" height="56" rx="2" fill="#EBF4FE"/>
<mask id="mask0_69_182" style="mask-type:alpha" maskUnits="userSpaceOnUse" x="8" y="8" width="40" height="40">
<rect x="8" y="8" width="40" height="40" fill="#D9D9D9"/>
</mask>
<g mask="url(#mask0_69_182)">
<path d="M14.6668 42.9999C13.7502 42.9999 12.9657 42.6738 12.3135 42.0216C11.6602 41.3683 11.3335 40.5833 11.3335 39.6666V21.3333C11.3335 20.4166 11.6602 19.6321 12.3135 18.9799C12.9657 18.3266 13.7502 17.9999 14.6668 17.9999H21.3335V14.6666C21.3335 13.7499 21.6602 12.9649 22.3135 12.3116C22.9657 11.6594 23.7502 11.3333 24.6668 11.3333H31.3335C32.2502 11.3333 33.0352 11.6594 33.6885 12.3116C34.3407 12.9649 34.6668 13.7499 34.6668 14.6666V17.9999H41.3335C42.2502 17.9999 43.0352 18.3266 43.6885 18.9799C44.3407 19.6321 44.6668 20.4166 44.6668 21.3333V39.6666C44.6668 40.5833 44.3407 41.3683 43.6885 42.0216C43.0352 42.6738 42.2502 42.9999 41.3335 42.9999H14.6668ZM24.6668 17.9999H31.3335V14.6666H24.6668V17.9999ZM14.6668 39.6666H41.3335V21.3333H14.6668V39.6666Z" fill="#1976D2"/>
</g>
</svg>
