<svg width="56" height="56" viewBox="0 0 56 56" fill="none" xmlns="http://www.w3.org/2000/svg">
<rect width="56" height="56" rx="2" fill="#EBF4FE"/>
<mask id="mask0_69_159" style="mask-type:alpha" maskUnits="userSpaceOnUse" x="8" y="8" width="40" height="40">
<rect x="8" y="8" width="40" height="40" fill="#D9D9D9"/>
</mask>
<g mask="url(#mask0_69_159)">
<path d="M24.9998 30L23.2498 28.25C23.6387 27.6944 23.8332 27.0622 23.8332 26.3533C23.8332 25.6456 23.6387 25.0139 23.2498 24.4583L24.9998 22.6667C25.8887 23.7222 26.3332 24.9444 26.3332 26.3333C26.3332 27.7222 25.8887 28.9444 24.9998 30ZM28.5415 33.5833L26.7498 31.7917C28.1387 30.2361 28.8332 28.4233 28.8332 26.3533C28.8332 24.2844 28.1387 22.4722 26.7498 20.9167L28.5415 19.125C29.4582 20.1528 30.1526 21.2917 30.6248 22.5417C31.0971 23.7917 31.3332 25.0622 31.3332 26.3533C31.3332 27.6456 31.0971 28.9167 30.6248 30.1667C30.1526 31.4167 29.4582 32.5556 28.5415 33.5833ZM16.3332 28C15.4165 28 14.6315 27.6733 13.9782 27.02C13.3259 26.3678 12.9998 25.5833 12.9998 24.6667C12.9998 23.75 13.3259 22.965 13.9782 22.3117C14.6315 21.6594 15.4165 21.3333 16.3332 21.3333C17.2498 21.3333 18.0343 21.6594 18.6865 22.3117C19.3398 22.965 19.6665 23.75 19.6665 24.6667C19.6665 25.5833 19.3398 26.3678 18.6865 27.02C18.0343 27.6733 17.2498 28 16.3332 28ZM9.6665 34.6667V33.7083C9.6665 33.0417 9.84706 32.4306 10.2082 31.875C10.5693 31.3194 11.0693 30.9028 11.7082 30.625C12.4304 30.3194 13.1732 30.0833 13.9365 29.9167C14.7009 29.75 15.4998 29.6667 16.3332 29.6667C17.1665 29.6667 17.9654 29.75 18.7298 29.9167C19.4932 30.0833 20.2359 30.3194 20.9582 30.625C21.5971 30.9028 22.0971 31.3194 22.4582 31.875C22.8193 32.4306 22.9998 33.0417 22.9998 33.7083V34.6667H9.6665ZM39.6665 28C38.7498 28 37.9648 27.6733 37.3115 27.02C36.6593 26.3678 36.3332 25.5833 36.3332 24.6667C36.3332 23.75 36.6593 22.965 37.3115 22.3117C37.9648 21.6594 38.7498 21.3333 39.6665 21.3333C40.5832 21.3333 41.3682 21.6594 42.0215 22.3117C42.6737 22.965 42.9998 23.75 42.9998 24.6667C42.9998 25.5833 42.6737 26.3678 42.0215 27.02C41.3682 27.6733 40.5832 28 39.6665 28ZM32.9998 34.6667V33.7083C32.9998 33.0417 33.1804 32.4306 33.5415 31.875C33.9026 31.3194 34.4026 30.9028 35.0415 30.625C35.7637 30.3194 36.5065 30.0833 37.2698 29.9167C38.0343 29.75 38.8332 29.6667 39.6665 29.6667C40.4998 29.6667 41.2987 29.75 42.0632 29.9167C42.8265 30.0833 43.5693 30.3194 44.2915 30.625C44.9304 30.9028 45.4304 31.3194 45.7915 31.875C46.1526 32.4306 46.3332 33.0417 46.3332 33.7083V34.6667H32.9998Z" fill="#1976D2"/>
</g>
</svg>
